<?xml version="1.0" encoding="UTF-8" standalone="no"?>
<!DOCTYPE svg PUBLIC "-//W3C//DTD SVG 1.1//EN"
 "http://www.w3.org/Graphics/SVG/1.1/DTD/svg11.dtd">
<!-- Generated by graphviz version 2.49.0 (20210828.1703)
 -->
<!-- Pages: 1 -->
<svg width="561pt" height="253pt"
 viewBox="0.00 0.00 561.03 252.79" xmlns="http://www.w3.org/2000/svg" xmlns:xlink="http://www.w3.org/1999/xlink">
<g id="graph0" class="graph" transform="scale(1 1) rotate(0) translate(4 248.79)">
<polygon fill="white" stroke="transparent" points="-4,4 -4,-248.79 557.03,-248.79 557.03,4 -4,4"/>
<!-- 1 -->
<g id="node1" class="node">
<title>1</title>
<polygon fill="lightgray" stroke="black" points="323.71,-181.41 302.71,-181.41 302.71,-163.41 323.71,-163.41 323.71,-181.41"/>
<text text-anchor="middle" x="313.21" y="-170.21" font-family="Times New Roman,serif" font-size="9.00">1</text>
</g>
<!-- N0 -->
<g id="node9" class="node">
<title>N0</title>
<ellipse fill="lightblue" stroke="black" cx="274.21" cy="-96.81" rx="19.6" ry="19.6"/>
<text text-anchor="middle" x="274.21" y="-94.61" font-family="Times New Roman,serif" font-size="9.00">N0</text>
</g>
<!-- 1&#45;&gt;N0 -->
<g id="edge1" class="edge">
<title>1&#45;&gt;N0</title>
<path fill="none" stroke="red" stroke-width="0.4" d="M308.89,-163.25C303.86,-153.76 295.31,-137.63 287.96,-123.76"/>
<polygon fill="red" stroke="red" stroke-width="0.4" points="290.9,-121.82 283.12,-114.62 284.71,-125.1 290.9,-121.82"/>
</g>
<!-- N1 -->
<g id="node10" class="node">
<title>N1</title>
<ellipse fill="lightblue" stroke="black" cx="370.21" cy="-96.81" rx="19.6" ry="19.6"/>
<text text-anchor="middle" x="370.21" y="-94.61" font-family="Times New Roman,serif" font-size="9.00">N1</text>
</g>
<!-- 1&#45;&gt;N1 -->
<g id="edge2" class="edge">
<title>1&#45;&gt;N1</title>
<path fill="none" stroke="green" stroke-width="0.16" d="M319.53,-163.25C327.38,-153.12 341.11,-135.39 352.3,-120.94"/>
<polygon fill="green" stroke="green" stroke-width="0.16" points="355.17,-122.95 358.53,-112.9 349.64,-118.66 355.17,-122.95"/>
</g>
<!-- N2 -->
<g id="node11" class="node">
<title>N2</title>
<ellipse fill="lightblue" stroke="black" cx="178.21" cy="-96.81" rx="19.6" ry="19.6"/>
<text text-anchor="middle" x="178.21" y="-94.61" font-family="Times New Roman,serif" font-size="9.00">N2</text>
</g>
<!-- 1&#45;&gt;N2 -->
<g id="edge3" class="edge">
<title>1&#45;&gt;N2</title>
<path fill="none" stroke="green" stroke-width="0.58" d="M302.62,-165.63C281.64,-154.2 234.27,-128.37 204.41,-112.09"/>
<polygon fill="green" stroke="green" stroke-width="0.58" points="205.84,-108.89 195.39,-107.17 202.49,-115.03 205.84,-108.89"/>
</g>
<!-- N3 -->
<g id="node12" class="node">
<title>N3</title>
<ellipse fill="lightblue" stroke="black" cx="370.21" cy="-19.8" rx="19.6" ry="19.6"/>
<text text-anchor="middle" x="370.21" y="-17.6" font-family="Times New Roman,serif" font-size="9.00">N3</text>
</g>
<!-- 1&#45;&gt;N3 -->
<g id="edge4" class="edge">
<title>1&#45;&gt;N3</title>
<path fill="none" stroke="green" stroke-width="0.34" d="M315,-163.27C318.81,-146.51 328.44,-107.07 341.21,-75.6 345.24,-65.68 350.51,-55.2 355.46,-46.08"/>
<polygon fill="green" stroke="green" stroke-width="0.34" points="358.62,-47.61 360.43,-37.17 352.5,-44.2 358.62,-47.61"/>
</g>
<!-- 2 -->
<g id="node2" class="node">
<title>2</title>
<polygon fill="lightgray" stroke="black" points="112.71,-181.41 91.71,-181.41 91.71,-163.41 112.71,-163.41 112.71,-181.41"/>
<text text-anchor="middle" x="102.21" y="-170.21" font-family="Times New Roman,serif" font-size="9.00">2</text>
</g>
<!-- 2&#45;&gt;N0 -->
<g id="edge5" class="edge">
<title>2&#45;&gt;N0</title>
<path fill="none" stroke="red" stroke-width="0.68" stroke-dasharray="1,5" d="M110.25,-163.24C113.71,-160.05 117.94,-156.56 122.21,-154.02 143.62,-141.34 208,-119.35 245.76,-106.97"/>
<polygon fill="red" stroke="red" stroke-width="0.68" points="247.22,-110.17 255.64,-103.75 245.05,-103.52 247.22,-110.17"/>
</g>
<!-- 2&#45;&gt;N1 -->
<g id="edge6" class="edge">
<title>2&#45;&gt;N1</title>
<path fill="none" stroke="green" stroke-width="0.19" d="M109.69,-163.25C113.18,-159.9 117.59,-156.29 122.21,-154.02 195.85,-117.91 223.64,-137.89 303.21,-118.02 315.98,-114.84 329.93,-110.73 341.78,-107.05"/>
<polygon fill="green" stroke="green" stroke-width="0.19" points="343.09,-110.31 351.58,-103.96 340.99,-103.63 343.09,-110.31"/>
</g>
<!-- 2&#45;&gt;N2 -->
<g id="edge7" class="edge">
<title>2&#45;&gt;N2</title>
<path fill="none" stroke="green" stroke-width="0.18" d="M110.64,-163.25C121.69,-152.54 141.5,-133.37 156.82,-118.53"/>
<polygon fill="green" stroke="green" stroke-width="0.18" points="159.6,-120.71 164.35,-111.24 154.73,-115.68 159.6,-120.71"/>
</g>
<!-- 2&#45;&gt;N3 -->
<g id="edge8" class="edge">
<title>2&#45;&gt;N3</title>
<path fill="none" stroke="green" stroke-width="0.64" stroke-dasharray="1,5" d="M97.55,-163.38C87.81,-145.41 67.87,-101.51 89.21,-75.6 120.8,-37.26 274.35,-25.38 340.17,-22.02"/>
<polygon fill="green" stroke="green" stroke-width="0.64" points="340.49,-25.51 350.31,-21.53 340.15,-18.51 340.49,-25.51"/>
</g>
<!-- 446 -->
<g id="node16" class="node">
<title>446</title>
<ellipse fill="white" stroke="black" cx="21.21" cy="-96.81" rx="21.43" ry="21.43"/>
<text text-anchor="middle" x="21.21" y="-94.61" font-family="Times New Roman,serif" font-size="9.00">446</text>
</g>
<!-- 2&#45;&gt;446 -->
<g id="edge38" class="edge">
<title>2&#45;&gt;446</title>
<path fill="none" stroke="green" stroke-width="0.4" d="M93.24,-163.25C81.48,-152.57 60.46,-133.48 44.16,-118.66"/>
<polygon fill="green" stroke="green" stroke-width="0.4" points="46.34,-115.92 36.59,-111.78 41.64,-121.1 46.34,-115.92"/>
</g>
<!-- 3 -->
<g id="node3" class="node">
<title>3</title>
<polygon fill="lightgray" stroke="black" points="362.71,-181.41 341.71,-181.41 341.71,-163.41 362.71,-163.41 362.71,-181.41"/>
<text text-anchor="middle" x="352.21" y="-170.21" font-family="Times New Roman,serif" font-size="9.00">3</text>
</g>
<!-- 3&#45;&gt;N0 -->
<g id="edge9" class="edge">
<title>3&#45;&gt;N0</title>
<path fill="none" stroke="red" stroke-width="0.4" stroke-dasharray="1,5" d="M343.57,-163.25C332.05,-152.38 311.28,-132.78 295.46,-117.86"/>
<polygon fill="red" stroke="red" stroke-width="0.4" points="297.83,-115.28 288.15,-110.97 293.03,-120.37 297.83,-115.28"/>
</g>
<!-- 3&#45;&gt;N1 -->
<g id="edge10" class="edge">
<title>3&#45;&gt;N1</title>
<path fill="none" stroke="red" stroke-width="0.27" d="M354.21,-163.25C356.41,-154.24 360.08,-139.25 363.35,-125.88"/>
<polygon fill="red" stroke="red" stroke-width="0.27" points="366.76,-126.65 365.74,-116.1 359.96,-124.99 366.76,-126.65"/>
</g>
<!-- 3&#45;&gt;N2 -->
<g id="edge11" class="edge">
<title>3&#45;&gt;N2</title>
<path fill="none" stroke="green" stroke-width="0.12" d="M344.65,-163.2C341.37,-160.01 337.34,-156.53 333.21,-154.02 311.41,-140.82 244.93,-118.79 206.49,-106.59"/>
<polygon fill="green" stroke="green" stroke-width="0.12" points="207.49,-103.24 196.9,-103.57 205.39,-109.92 207.49,-103.24"/>
</g>
<!-- 3&#45;&gt;N3 -->
<g id="edge12" class="edge">
<title>3&#45;&gt;N3</title>
<path fill="none" stroke="red" stroke-width="0.21" d="M360.73,-163.24C373.16,-151.08 395.24,-128.54 399.21,-118.02 408.4,-93.7 397.35,-65.1 386.34,-45.24"/>
<polygon fill="red" stroke="red" stroke-width="0.21" points="389.29,-43.35 381.2,-36.52 383.26,-46.91 389.29,-43.35"/>
</g>
<!-- 4 -->
<g id="node4" class="node">
<title>4</title>
<polygon fill="lightgray" stroke="black" points="479.71,-181.41 458.71,-181.41 458.71,-163.41 479.71,-163.41 479.71,-181.41"/>
<text text-anchor="middle" x="469.21" y="-170.21" font-family="Times New Roman,serif" font-size="9.00">4</text>
</g>
<!-- 4&#45;&gt;N0 -->
<g id="edge13" class="edge">
<title>4&#45;&gt;N0</title>
<path fill="none" stroke="green" stroke-width="0.28" d="M458.45,-167.35C428.9,-156.19 345.78,-124.82 301.99,-108.3"/>
<polygon fill="green" stroke="green" stroke-width="0.28" points="303.11,-104.98 292.52,-104.72 300.64,-111.53 303.11,-104.98"/>
</g>
<!-- 4&#45;&gt;N1 -->
<g id="edge14" class="edge">
<title>4&#45;&gt;N1</title>
<path fill="none" stroke="red" stroke-width="0.69" d="M458.62,-163.53C443.34,-152.18 414.71,-130.89 394.17,-115.62"/>
<polygon fill="red" stroke="red" stroke-width="0.69" points="396.03,-112.65 385.92,-109.49 391.86,-118.26 396.03,-112.65"/>
</g>
<!-- 4&#45;&gt;N2 -->
<g id="edge15" class="edge">
<title>4&#45;&gt;N2</title>
<path fill="none" stroke="green" stroke-width="0.28" d="M458.59,-167.96C447.01,-164.25 427.91,-158.33 411.21,-154.02 338.11,-135.17 318.3,-136.94 245.21,-118.02 232.48,-114.73 218.53,-110.6 206.67,-106.94"/>
<polygon fill="green" stroke="green" stroke-width="0.28" points="207.46,-103.52 196.87,-103.88 205.37,-110.2 207.46,-103.52"/>
</g>
<!-- 4&#45;&gt;N3 -->
<g id="edge16" class="edge">
<title>4&#45;&gt;N3</title>
<path fill="none" stroke="green" stroke-width="0.51" stroke-dasharray="1,5" d="M480.19,-165.59C494.57,-157.25 519.17,-140.41 529.21,-118.02 536.93,-100.82 540.16,-90.95 529.21,-75.6 499.9,-34.49 437.64,-23.91 400.31,-21.38"/>
<polygon fill="green" stroke="green" stroke-width="0.51" points="400.22,-17.87 390.05,-20.84 399.85,-24.86 400.22,-17.87"/>
</g>
<!-- 96 -->
<g id="node13" class="node">
<title>96</title>
<ellipse fill="white" stroke="black" cx="502.21" cy="-96.81" rx="18.27" ry="18.27"/>
<text text-anchor="middle" x="502.21" y="-94.61" font-family="Times New Roman,serif" font-size="9.00">96</text>
</g>
<!-- 4&#45;&gt;96 -->
<g id="edge34" class="edge">
<title>4&#45;&gt;96</title>
<path fill="none" stroke="green" stroke-width="0.44" d="M472.87,-163.25C477.21,-153.58 484.64,-137.01 490.94,-122.96"/>
<polygon fill="green" stroke="green" stroke-width="0.44" points="494.17,-124.31 495.07,-113.75 487.78,-121.44 494.17,-124.31"/>
</g>
<!-- 5 -->
<g id="node5" class="node">
<title>5</title>
<polygon fill="lightgray" stroke="black" points="206.71,-181.41 185.71,-181.41 185.71,-163.41 206.71,-163.41 206.71,-181.41"/>
<text text-anchor="middle" x="196.21" y="-170.21" font-family="Times New Roman,serif" font-size="9.00">5</text>
</g>
<!-- 5&#45;&gt;N0 -->
<g id="edge17" class="edge">
<title>5&#45;&gt;N0</title>
<path fill="none" stroke="green" stroke-width="0.28" d="M204.86,-163.25C216.38,-152.38 237.15,-132.78 252.97,-117.86"/>
<polygon fill="green" stroke="green" stroke-width="0.28" points="255.4,-120.37 260.27,-110.97 250.6,-115.28 255.4,-120.37"/>
</g>
<!-- 5&#45;&gt;N1 -->
<g id="edge18" class="edge">
<title>5&#45;&gt;N1</title>
<path fill="none" stroke="green" stroke-width="0.25" stroke-dasharray="1,5" d="M204.25,-163.23C207.7,-160.04 211.93,-156.55 216.21,-154.02 237.99,-141.19 303.69,-119.1 341.87,-106.78"/>
<polygon fill="green" stroke="green" stroke-width="0.25" points="342.95,-110.11 351.4,-103.73 340.81,-103.45 342.95,-110.11"/>
</g>
<!-- 5&#45;&gt;N2 -->
<g id="edge19" class="edge">
<title>5&#45;&gt;N2</title>
<path fill="none" stroke="green" stroke-width="0.26" d="M194.22,-163.25C192.02,-154.24 188.35,-139.25 185.08,-125.88"/>
<polygon fill="green" stroke="green" stroke-width="0.26" points="188.46,-124.99 182.69,-116.1 181.66,-126.65 188.46,-124.99"/>
</g>
<!-- 170 -->
<g id="node14" class="node">
<title>170</title>
<ellipse fill="white" stroke="black" cx="119.21" cy="-96.81" rx="21.43" ry="21.43"/>
<text text-anchor="middle" x="119.21" y="-94.61" font-family="Times New Roman,serif" font-size="9.00">170</text>
</g>
<!-- 5&#45;&gt;170 -->
<g id="edge36" class="edge">
<title>5&#45;&gt;170</title>
<path fill="none" stroke="green" stroke-width="0.3" d="M187.68,-163.25C176.68,-152.73 157.13,-134.05 141.73,-119.33"/>
<polygon fill="green" stroke="green" stroke-width="0.3" points="143.77,-116.44 134.12,-112.06 138.93,-121.5 143.77,-116.44"/>
</g>
<!-- 6 -->
<g id="node6" class="node">
<title>6</title>
<polygon fill="lightgray" stroke="black" points="401.71,-181.41 380.71,-181.41 380.71,-163.41 401.71,-163.41 401.71,-181.41"/>
<text text-anchor="middle" x="391.21" y="-170.21" font-family="Times New Roman,serif" font-size="9.00">6</text>
</g>
<!-- 6&#45;&gt;N0 -->
<g id="edge20" class="edge">
<title>6&#45;&gt;N0</title>
<path fill="none" stroke="green" stroke-width="0.39" d="M383.04,-163.2C379.81,-160.15 375.97,-156.77 372.21,-154.02 349.38,-137.34 321.18,-121.62 300.91,-111.07"/>
<polygon fill="green" stroke="green" stroke-width="0.39" points="302.42,-107.91 291.92,-106.46 299.22,-114.14 302.42,-107.91"/>
</g>
<!-- 6&#45;&gt;N1 -->
<g id="edge21" class="edge">
<title>6&#45;&gt;N1</title>
<path fill="none" stroke="green" stroke-width="0.25" d="M388.89,-163.25C386.32,-154.24 382.04,-139.25 378.22,-125.88"/>
<polygon fill="green" stroke="green" stroke-width="0.25" points="381.54,-124.76 375.43,-116.1 374.81,-126.68 381.54,-124.76"/>
</g>
<!-- 6&#45;&gt;N2 -->
<g id="edge22" class="edge">
<title>6&#45;&gt;N2</title>
<path fill="none" stroke="green" stroke-width="0.1" d="M383.73,-163.05C380.47,-159.84 376.43,-156.38 372.21,-154.02 320.97,-125.45 301.52,-134.5 245.21,-118.02 232.59,-114.33 218.65,-110.15 206.78,-106.54"/>
<polygon fill="green" stroke="green" stroke-width="0.1" points="207.55,-103.12 196.96,-103.56 205.51,-109.82 207.55,-103.12"/>
</g>
<!-- 6&#45;&gt;N3 -->
<g id="edge23" class="edge">
<title>6&#45;&gt;N3</title>
<path fill="none" stroke="red" stroke-width="0.39" d="M396.24,-163.3C405.95,-146.59 425.34,-107.23 414.21,-75.6 409.66,-62.65 400.61,-50.5 391.9,-40.95"/>
<polygon fill="red" stroke="red" stroke-width="0.39" points="394.23,-38.32 384.76,-33.57 389.2,-43.19 394.23,-38.32"/>
</g>
<!-- 7 -->
<g id="node7" class="node">
<title>7</title>
<polygon fill="lightgray" stroke="black" points="284.71,-244.79 263.71,-244.79 263.71,-226.79 284.71,-226.79 284.71,-244.79"/>
<text text-anchor="middle" x="274.21" y="-233.59" font-family="Times New Roman,serif" font-size="9.00">7</text>
</g>
<!-- 7&#45;&gt;N0 -->
<g id="edge24" class="edge">
<title>7&#45;&gt;N0</title>
<path fill="none" stroke="green" stroke-width="0.13" d="M274.21,-226.64C274.21,-207.39 274.21,-158.37 274.21,-126.66"/>
<polygon fill="green" stroke="green" stroke-width="0.13" points="277.71,-126.63 274.21,-116.63 270.71,-126.63 277.71,-126.63"/>
</g>
<!-- 7&#45;&gt;N1 -->
<g id="edge25" class="edge">
<title>7&#45;&gt;N1</title>
<path fill="none" stroke="green" stroke-width="0.1" d="M284.77,-235.18C311.34,-235.5 381.04,-232.17 411.21,-190.79 427.57,-168.37 408.34,-138.39 391.08,-118.61"/>
<polygon fill="green" stroke="green" stroke-width="0.1" points="393.5,-116.07 384.16,-111.06 388.34,-120.8 393.5,-116.07"/>
</g>
<!-- 7&#45;&gt;N2 -->
<g id="edge26" class="edge">
<title>7&#45;&gt;N2</title>
<path fill="none" stroke="green" stroke-width="0.32" stroke-dasharray="1,5" d="M263.56,-234.04C226.65,-231.2 105.28,-219.75 82.21,-190.79 72.03,-178.01 73.83,-168.05 82.21,-154.02 99.56,-125.01 120.41,-135.72 149.21,-118.02 150.72,-117.1 152.26,-116.12 153.8,-115.12"/>
<polygon fill="green" stroke="green" stroke-width="0.32" points="156.15,-117.76 162.48,-109.27 152.23,-111.96 156.15,-117.76"/>
</g>
<!-- 7&#45;&gt;N3 -->
<g id="edge27" class="edge">
<title>7&#45;&gt;N3</title>
<path fill="none" stroke="green" stroke-width="0.11" d="M285,-235.11C318.16,-235.58 420.53,-233.29 489.21,-190.79 524.15,-169.18 532.81,-156.86 546.21,-118.02 552.36,-100.2 557.39,-90.78 546.21,-75.6 512.61,-29.93 441.22,-21.23 400.44,-20.2"/>
<polygon fill="green" stroke="green" stroke-width="0.11" points="400.33,-16.7 390.29,-20.08 400.25,-23.7 400.33,-16.7"/>
</g>
<!-- 13 -->
<g id="node15" class="node">
<title>13</title>
<ellipse fill="white" stroke="black" cx="149.21" cy="-172.41" rx="18.27" ry="18.27"/>
<text text-anchor="middle" x="149.21" y="-170.21" font-family="Times New Roman,serif" font-size="9.00">13</text>
</g>
<!-- 7&#45;&gt;13 -->
<g id="edge32" class="edge">
<title>7&#45;&gt;13</title>
<path fill="none" stroke="red" stroke-width="0.15" stroke-dasharray="1,5" d="M263.52,-230.48C245.41,-223.06 207.71,-207.09 177.21,-190.79 175.89,-190.09 174.54,-189.34 173.19,-188.57"/>
<polygon fill="red" stroke="red" stroke-width="0.15" points="174.79,-185.45 164.41,-183.34 171.21,-191.46 174.79,-185.45"/>
</g>
<!-- 8 -->
<g id="node8" class="node">
<title>8</title>
<polygon fill="lightgray" stroke="black" points="245.71,-181.41 224.71,-181.41 224.71,-163.41 245.71,-163.41 245.71,-181.41"/>
<text text-anchor="middle" x="235.21" y="-170.21" font-family="Times New Roman,serif" font-size="9.00">8</text>
</g>
<!-- 8&#45;&gt;N0 -->
<g id="edge28" class="edge">
<title>8&#45;&gt;N0</title>
<path fill="none" stroke="red" stroke-width="0.18" stroke-dasharray="1,5" d="M239.54,-163.25C244.56,-153.76 253.11,-137.63 260.47,-123.76"/>
<polygon fill="red" stroke="red" stroke-width="0.18" points="263.72,-125.1 265.31,-114.62 257.53,-121.82 263.72,-125.1"/>
</g>
<!-- 8&#45;&gt;N1 -->
<g id="edge29" class="edge">
<title>8&#45;&gt;N1</title>
<path fill="none" stroke="green" stroke-width="0.6" d="M245.81,-165.63C266.78,-154.2 314.16,-128.37 344.02,-112.09"/>
<polygon fill="green" stroke="green" stroke-width="0.6" points="345.93,-115.03 353.04,-107.17 342.58,-108.89 345.93,-115.03"/>
</g>
<!-- 8&#45;&gt;N2 -->
<g id="edge30" class="edge">
<title>8&#45;&gt;N2</title>
<path fill="none" stroke="red" stroke-width="0.38" d="M228.9,-163.25C221.04,-153.12 207.32,-135.39 196.13,-120.94"/>
<polygon fill="red" stroke="red" stroke-width="0.38" points="198.79,-118.66 189.9,-112.9 193.25,-122.95 198.79,-118.66"/>
</g>
<!-- 8&#45;&gt;N3 -->
<g id="edge31" class="edge">
<title>8&#45;&gt;N3</title>
<path fill="none" stroke="red" stroke-width="0.1" stroke-dasharray="1,5" d="M233.56,-163.27C230.43,-145.46 225.58,-102.47 245.21,-75.6 267.62,-44.92 310.98,-31.18 340.27,-25.19"/>
<polygon fill="red" stroke="red" stroke-width="0.1" points="341.16,-28.58 350.36,-23.31 339.88,-21.7 341.16,-28.58"/>
</g>
<!-- 96&#45;&gt;N3 -->
<g id="edge35" class="edge">
<title>96&#45;&gt;N3</title>
<path fill="none" stroke="green" stroke-width="0.37" d="M487.03,-85.95C481.75,-82.59 475.76,-78.87 470.21,-75.6 445.47,-61.03 416.67,-45.38 396.35,-34.55"/>
<polygon fill="green" stroke="green" stroke-width="0.37" points="397.85,-31.38 387.38,-29.79 394.57,-37.57 397.85,-31.38"/>
</g>
<!-- 170&#45;&gt;N3 -->
<g id="edge37" class="edge">
<title>170&#45;&gt;N3</title>
<path fill="none" stroke="red" stroke-width="0.45" d="M135.74,-83.18C139.97,-80.38 144.62,-77.64 149.21,-75.6 214.29,-46.69 297.22,-31.33 340.64,-24.77"/>
<polygon fill="red" stroke="red" stroke-width="0.45" points="341.16,-28.23 350.55,-23.32 340.15,-21.3 341.16,-28.23"/>
</g>
<!-- 13&#45;&gt;N2 -->
<g id="edge33" class="edge">
<title>13&#45;&gt;N2</title>
<path fill="none" stroke="red" stroke-width="0.42" d="M155.65,-155.08C159.16,-146.15 163.61,-134.88 167.62,-124.7"/>
<polygon fill="red" stroke="red" stroke-width="0.42" points="170.88,-125.97 171.29,-115.38 164.37,-123.4 170.88,-125.97"/>
</g>
<!-- 446&#45;&gt;N3 -->
<g id="edge39" class="edge">
<title>446&#45;&gt;N3</title>
<path fill="none" stroke="green" stroke-width="0.87" d="M38.43,-84.27C43.92,-81.03 50.15,-77.8 56.21,-75.6 156.39,-39.23 283.55,-26.57 340.4,-22.53"/>
<polygon fill="green" stroke="green" stroke-width="0.87" points="340.75,-26.01 350.49,-21.85 340.28,-19.03 340.75,-26.01"/>
</g>
</g>
</svg>
